<?xml version="1.0" standalone="no"?><!DOCTYPE svg PUBLIC "-//W3C//DTD SVG 1.1//EN" "http://www.w3.org/Graphics/SVG/1.1/DTD/svg11.dtd"><svg t="1647939237900" class="icon" viewBox="0 0 1024 1024" version="1.1" xmlns="http://www.w3.org/2000/svg" p-id="2324" xmlns:xlink="http://www.w3.org/1999/xlink" width="200" height="200"><defs><style type="text/css">@font-face { font-family: feedback-iconfont; src: url("//at.alicdn.com/t/font_1031158_u69w8yhxdu.woff2?t=1630033759944") format("woff2"), url("//at.alicdn.com/t/font_1031158_u69w8yhxdu.woff?t=1630033759944") format("woff"), url("//at.alicdn.com/t/font_1031158_u69w8yhxdu.ttf?t=1630033759944") format("truetype"); }
</style></defs><path d="M512 64C264.96 64 64 264.96 64 512s200.96 448 448 448 448-200.96 448-448S759.04 64 512 64z m0 832C300.256 896 128 723.744 128 512S300.256 128 512 128s384 172.256 384 384-172.256 384-384 384z" p-id="2325" fill="#2c2c2c"></path><path d="M519.552 256a32 32 0 0 0-32 32v128a32 32 0 0 0 64 0V288a32 32 0 0 0-32-32zM348.384 520.32a32 32 0 1 0-56.768 29.568l72.32 136.896a32 32 0 1 0 56.768-29.568l-72.32-136.896zM727.104 506.72a32 32 0 0 0-43.168 13.6l-72.32 136.896a32 32 0 1 0 56.768 29.568l72.32-136.896a32 32 0 0 0-13.6-43.168z" p-id="2326" fill="#2c2c2c"></path></svg>